<!-- icon666.com - MILLIONS vector ICONS FREE --><svg id="Layer_2" viewBox="0 0 32 32" xmlns="http://www.w3.org/2000/svg" xmlns:xlink="http://www.w3.org/1999/xlink" data-name="Layer 2"><linearGradient id="Orange_Yellow" gradientUnits="userSpaceOnUse" x1="7.284" x2="26.955" y1="32.081" y2="6.264"><stop offset="0" stop-color="#fff33b"></stop><stop offset=".04" stop-color="#fee72e"></stop><stop offset=".117" stop-color="#fed51b"></stop><stop offset=".196" stop-color="#fdca10"></stop><stop offset=".281" stop-color="#fdc70c"></stop><stop offset=".669" stop-color="#f3903f"></stop><stop offset=".888" stop-color="#ed683c"></stop><stop offset="1" stop-color="#e93e3a"></stop></linearGradient><linearGradient id="Orange_Yellow-2" x1=".618" x2="20.288" xlink:href="#Orange_Yellow" y1="27.002" y2="1.184"></linearGradient><linearGradient id="Orange_Yellow-3" x1="9.475" x2="29.146" xlink:href="#Orange_Yellow" y1="33.751" y2="7.933"></linearGradient><linearGradient id="Orange_Yellow-4" x1="1.672" x2="21.343" xlink:href="#Orange_Yellow" y1="27.805" y2="1.988"></linearGradient><linearGradient id="Orange_Yellow-5" x1="8.421" x2="28.091" xlink:href="#Orange_Yellow" y1="32.948" y2="7.13"></linearGradient><path d="m30 29h-6.549a14.974 14.974 0 1 0 -7.451 2h14a1 1 0 0 0 0-2zm-27-13a13 13 0 1 1 13 13 13.015 13.015 0 0 1 -13-13z" fill="url(#Orange_Yellow)"></path><path d="m9 12a4 4 0 1 0 4 4 4 4 0 0 0 -4-4zm0 6a2 2 0 1 1 2-2 2 2 0 0 1 -2 2z" fill="url(#Orange_Yellow-2)"></path><path d="m23 20a4 4 0 1 0 -4-4 4 4 0 0 0 4 4zm0-6a2 2 0 1 1 -2 2 2 2 0 0 1 2-2z" fill="url(#Orange_Yellow-3)"></path><path d="m16 13a4 4 0 1 0 -4-4 4 4 0 0 0 4 4zm0-6a2 2 0 1 1 -2 2 2 2 0 0 1 2-2z" fill="url(#Orange_Yellow-4)"></path><path d="m20 23a4 4 0 1 0 -4 4 4 4 0 0 0 4-4zm-6 0a2 2 0 1 1 2 2 2 2 0 0 1 -2-2z" fill="url(#Orange_Yellow-5)"></path></svg>