<?xml version="1.0" encoding="UTF-8" standalone="no"?>
<!DOCTYPE svg PUBLIC "-//W3C//DTD SVG 1.1//EN" "http://www.w3.org/Graphics/SVG/1.1/DTD/svg11.dtd">
<!-- Created with Vectornator (http://vectornator.io/) -->
<svg stroke-miterlimit="10" style="fill-rule:nonzero;clip-rule:evenodd;stroke-linecap:round;stroke-linejoin:round;" version="1.1" viewBox="0 0 400 400" xml:space="preserve" xmlns="http://www.w3.org/2000/svg" xmlns:xlink="http://www.w3.org/1999/xlink">
<defs/>
<clipPath id="ArtboardFrame">
<rect height="400" width="400" x="0" y="0"/>
</clipPath>
<g clip-path="url(#ArtboardFrame)" id="Слой-1">
<path d="M0.795296 199.889C0.795296 89.4475 90.1399-0.0833555 200.352-0.0833555C310.564-0.0833555 399.909 89.4475 399.909 199.889C399.909 310.331 310.564 399.862 200.352 399.862C90.1399 399.862 0.795296 310.331 0.795296 199.889Z" fill="#f1d244" fill-rule="nonzero" opacity="1" stroke="none"/>
<g opacity="1">
<path d="M200.469 39.625C196.881 39.5391 193.302 39.7993 189.719 39.9375C186.106 40.0768 182.486 40.2024 178.875 40.375C171.558 40.7248 164.249 41.1295 157 42.25C147.807 43.6709 138.75 45.9082 129.906 48.7812C118.441 52.5059 107.555 57.6911 97.0312 63.5312C81.2557 72.2863 66.4976 82.8484 57.5 98.9375C55.0893 103.248 53.2428 107.788 51.7812 112.5C47.5762 126.979 55.8959 142.139 70.375 146.344C84.8541 150.549 100.014 142.229 104.219 127.75C104.469 126.746 104.723 125.757 105.156 124.812C106.953 120.9 110.516 117.889 113.844 115.312C118.646 111.595 123.822 108.349 129 105.188C140.812 97.9761 153.825 92.849 167.062 88.9375C172.621 87.2952 178.18 85.6197 183.875 84.5C186.751 83.9345 189.709 83.486 192.625 83.1875C195.577 82.8852 198.544 82.8369 201.5 82.5938C208.612 82.0088 215.738 81.417 222.875 81.25C225.779 81.182 228.689 81.1781 231.594 81.1875C233.649 81.1941 235.696 81.2044 237.75 81.25C239.375 81.2861 241.002 81.3418 242.625 81.4375C246.479 81.6646 250.314 82.1186 254.031 83.1875C256.352 83.855 258.703 84.8513 260.531 86.4688C261.825 87.6133 262.786 89.0435 263.531 90.5938C266.531 96.8346 264.832 104.818 262.75 111.062C258.505 123.797 251.036 135.152 244.781 146.938C238.095 159.536 232.675 172.732 226.812 185.719C220.951 198.703 214.911 211.625 211.219 225.438C208.148 236.923 206.924 248.667 207.75 260.531C208.347 269.104 209.671 277.514 212.031 285.781C212.843 288.625 212.813 291.872 214.625 294.344C216.143 296.414 218.768 298.129 220.906 299.5C225.063 302.165 229.532 304.336 233.781 306.844C229.626 303.701 225.169 300.902 221.188 297.531C219.679 296.254 217.768 294.673 216.781 292.938C215.736 291.099 215.915 288.719 215.719 286.688C215.484 284.253 214.965 281.838 214.688 279.406C214.097 274.237 213.938 269.043 214.062 263.844C214.277 254.932 215.4 246.188 217.938 237.625C222.411 222.531 230.382 208.855 238.531 195.5C245.6 183.915 252.297 172.09 259.906 160.844C266.475 151.135 273.902 142.009 280.125 132.062C288.314 118.973 295.003 103.857 293.156 88.0625C292.809 85.0914 292.145 82.1568 291.219 79.3125C290.121 75.9441 288.648 72.6992 286.781 69.6875C285.252 67.22 283.467 64.918 281.469 62.8125C269.05 49.7294 250.729 46.1914 233.688 43.4375C230.153 42.8663 226.607 42.2615 223.062 41.75C215.575 40.6693 208.039 39.8062 200.469 39.625Z" fill="#ffffff" stroke="none"/>
</g>
<g opacity="1">
<path d="M237.219 314.125C231.968 314.405 226.76 316.184 222.25 319.594C222.493 319.652 222.856 319.722 222.812 319.781C222.514 320.19 222.087 320.497 221.719 320.844C220.956 321.563 220.156 322.237 219.438 323C218.277 324.232 217.094 325.447 216.094 326.812C215.137 328.118 214.348 329.537 213.594 330.969C211.879 334.222 210.703 338.381 211.469 342.094C211.698 343.206 212.259 344.206 212.625 345.281C212.793 345.774 212.94 346.3 213.031 346.812C213.115 347.282 213.034 347.758 213.156 348.219C213.568 349.768 214.769 351.113 215.688 352.375C216.439 353.408 216.823 353.966 217.625 354.969C220.96 359.136 224.736 363.273 229.75 365.406C232.075 366.395 234.58 366.832 237.062 366.25C242.229 365.038 245.953 360.109 249.562 356.594C249.295 356.325 249.07 356.025 248.812 355.75C248.194 355.088 247.415 354.58 246.719 354C245.795 353.23 245.329 352.845 244.438 352.031C244.059 351.686 243.706 351.362 243.344 351C242.451 350.11 241.5 348.946 241.219 347.688C241.073 347.037 241.208 346.229 241.875 345.906C242.466 345.62 242.844 345.731 243.5 345.781C245.204 345.91 246.795 346.53 248.406 347.062C249.918 347.562 251.466 347.863 253.031 348.125C254.02 348.291 255.306 348.275 256.188 348.812C256.273 348.864 256.271 348.994 256.344 349.062C256.49 349.201 256.674 349.298 256.844 349.406C257.387 349.754 257.853 349.893 258.281 350.406C258.837 351.072 258.991 352.139 258.938 352.969C258.847 354.387 258.235 355.763 257.594 357.031C257.064 358.078 256.483 359.101 255.812 360.062C255.1 361.085 254.242 362.016 253.438 362.969C253.054 363.423 252.591 363.794 252.25 364.281C252.196 364.358 252.222 364.586 252.312 364.562C252.818 364.433 253.74 364.428 253.75 363.906C253.777 362.476 253.762 363.907 255.188 363.156C267.214 354.063 269.593 336.933 260.5 324.906C254.817 317.39 245.97 313.659 237.219 314.125ZM249.562 356.594C250.578 357.617 251.666 358.586 252.406 359.812C253.146 361.037 249.656 356.5 249.656 356.5C249.627 356.529 249.592 356.565 249.562 356.594Z" fill="#ffffff" stroke="none"/>
</g>
</g>
</svg>
