<?xml version="1.0" encoding="UTF-8" standalone="no"?>
<!DOCTYPE svg PUBLIC "-//W3C//DTD SVG 1.1//EN" "http://www.w3.org/Graphics/SVG/1.1/DTD/svg11.dtd">
<!-- Created with Vectornator (http://vectornator.io/) -->
<svg stroke-miterlimit="10" style="fill-rule:nonzero;clip-rule:evenodd;stroke-linecap:round;stroke-linejoin:round;" version="1.1" viewBox="0 0 400 400" xml:space="preserve" xmlns="http://www.w3.org/2000/svg" xmlns:xlink="http://www.w3.org/1999/xlink">
<defs/>
<clipPath id="ArtboardFrame">
<rect height="400" width="400" x="0" y="0"/>
</clipPath>
<g clip-path="url(#ArtboardFrame)" id="Слой-1">
<path d="M0.795296 199.889C0.795296 89.4475 90.1399-0.0833555 200.352-0.0833555C310.564-0.0833555 399.909 89.4475 399.909 199.889C399.909 310.331 310.564 399.862 200.352 399.862C90.1399 399.862 0.795296 310.331 0.795296 199.889Z" fill="#e94420" fill-rule="nonzero" opacity="1" stroke="none"/>
<path d="M58.0625 110.312C51.2422 110.828 44.5438 113.924 39.5625 119.531C29.5999 130.745 30.3039 147.671 41.1562 157.312C60.9248 175.199 80.6068 193.176 100.375 211.062C106.843 216.915 113.3 222.803 119.906 228.5C123.67 231.746 127.564 234.819 131.406 237.969C133.663 239.819 135.888 241.69 138.125 243.562C139.39 244.621 140.619 245.791 141.938 246.781C143.597 248.028 145.422 249.048 147.156 250.188C149.632 251.814 152.11 253.449 154.594 255.062C160.232 258.725 165.762 262.581 171.312 266.375C176.166 269.693 180.912 273.134 185.688 276.562C198.94 286.078 211.999 295.893 224.781 306.031C243.008 320.489 260.377 335.979 278.188 350.938C282.339 354.424 286.574 357.808 290.812 361.188C297.247 366.318 303.827 371.309 311 375.375C314.051 377.105 317.221 378.606 320.438 380C317.004 377.442 313.718 374.717 310.656 371.719C305.135 366.313 300.29 360.29 295.531 354.219C288.602 345.378 281.989 336.333 275.469 327.188C268.528 317.452 261.668 307.648 254.562 298.031C249.871 291.682 245.049 285.431 240.219 279.188C234.771 272.145 229.312 265.135 223.781 258.156C214.237 246.113 204.581 234.164 195.031 222.125C191.856 218.122 188.704 214.074 185.5 210.094C184.16 208.429 182.883 206.667 181.438 205.094C180.298 203.854 178.994 202.7 177.781 201.531C175.656 199.482 173.516 197.44 171.406 195.375C167.761 191.807 164.155 188.208 160.375 184.781C154.119 179.109 147.681 173.653 141.219 168.219C120.26 150.593 98.7266 133.673 77.25 116.688C71.8238 111.867 64.8828 109.797 58.0625 110.312Z" fill="#ffffff" fill-rule="nonzero" opacity="1" stroke="none"/>
<path d="M399.438 15.25C397.432 16.3463 395.382 17.4139 393.406 18.5625C386.241 22.7277 379.391 27.4681 372.562 32.1562C364.443 37.7311 356.436 43.4797 348.5 49.3125C339.576 55.8718 330.756 62.5502 321.844 69.125C311.566 76.7068 301.209 84.1955 290.844 91.6562C271.85 105.327 252.839 118.98 234.031 132.906C216.69 145.747 199.528 158.848 182.375 171.938C173.647 178.598 164.891 185.193 156.156 191.844C152.65 194.514 149.143 197.21 145.656 199.906C144.353 200.914 143.015 201.883 141.75 202.938C139.639 204.696 137.645 206.639 135.625 208.5C132.376 211.493 129.137 214.49 125.875 217.469C118.448 224.251 111.142 231.134 104 238.219C90.4778 251.633 77.5418 265.646 64.7812 279.781C45.4246 301.223 26.5309 323.074 7.15625 344.5C-2.3602 355.022-1.27871 371.51 9.59375 381.344C20.4662 391.177 37.0148 390.616 46.5312 380.094C73.76 352.601 100.378 324.536 127.531 296.969C135.914 288.458 144.494 280.138 152.906 271.656C157.896 266.625 162.755 261.462 167.688 256.375C170.697 253.272 173.712 250.2 176.75 247.125C178.259 245.598 179.845 244.096 181.281 242.5C183.078 240.503 184.766 238.396 186.5 236.344C191.363 230.588 196.171 224.799 201.094 219.094C214.191 203.916 227.555 188.973 241.094 174.188C250.296 164.138 259.59 154.14 269.062 144.344C286.873 125.925 305.088 107.881 322.969 89.5312C337.496 74.6229 351.826 59.5484 366.625 44.9062C371.813 39.7728 377.091 34.749 382.438 29.7812C386.225 26.2621 390.059 22.7122 394.062 19.4375C395.821 17.9988 397.641 16.6419 399.438 15.25Z" fill="#ffffff" fill-rule="nonzero" opacity="1" stroke="none"/>
</g>
</svg>
