<?xml version="1.0" encoding="UTF-8" standalone="no"?>
<!DOCTYPE svg PUBLIC "-//W3C//DTD SVG 1.1//EN" "http://www.w3.org/Graphics/SVG/1.1/DTD/svg11.dtd">
<!-- Created with Vectornator (http://vectornator.io/) -->
<svg stroke-miterlimit="10" style="fill-rule:nonzero;clip-rule:evenodd;stroke-linecap:round;stroke-linejoin:round;" version="1.1" viewBox="0 0 400 400" xml:space="preserve" xmlns="http://www.w3.org/2000/svg" xmlns:xlink="http://www.w3.org/1999/xlink">
<defs/>
<clipPath id="ArtboardFrame">
<rect height="400" width="400" x="0" y="0"/>
</clipPath>
<g clip-path="url(#ArtboardFrame)" id="Слой-1">
<path d="M0.795296 199.889C0.795296 89.4475 90.1399-0.0833555 200.352-0.0833555C310.564-0.0833555 399.909 89.4475 399.909 199.889C399.909 310.331 310.564 399.862 200.352 399.862C90.1399 399.862 0.795296 310.331 0.795296 199.889Z" fill="#3ddc84" fill-rule="nonzero" opacity="1" stroke="none"/>
<path d="M399.406 12.0625C357.027 40.6088 316.096 71.3893 277.719 105.156C247.73 131.543 219.531 159.85 191.625 188.406C181.307 198.965 170.914 209.484 160.844 220.281C157.983 223.349 155.127 226.421 152.312 229.531C150.904 231.088 149.445 232.612 148.094 234.219C146.106 236.582 144.329 239.129 142.469 241.594C142.294 241.825 142.112 242.05 141.938 242.281C126.828 214.221 109.872 187.214 90.4688 161.906C81.9981 150.044 65.1948 147.529 52.9375 156.281C40.6802 165.034 37.5918 181.763 46.0625 193.625C62.8429 217.657 77.3006 243.144 90.2188 269.438C94.38 277.907 98.414 286.439 102.031 295.156C103.199 297.97 104.272 300.805 105.344 303.656C105.621 304.393 105.886 305.136 106.156 305.875C106.196 306.075 106.235 306.271 106.281 306.469C106.46 307.229 106.605 308.006 106.844 308.75C107.225 309.937 107.595 311.121 108.125 312.25C108.901 313.903 109.659 315.598 110.75 317.062C112.375 319.245 114.042 321.493 116.219 323.125C119.243 325.392 122.616 327.27 126.156 328.594C128.889 329.616 131.87 329.862 134.781 330.062C136.849 330.205 138.916 329.908 140.969 329.625C142.347 329.435 143.699 329.059 145.031 328.656C146.257 328.286 147.483 327.826 148.656 327.312C153.05 325.389 156.978 322.426 160.125 318.812C161.876 316.802 163.279 314.562 164.562 312.25C164.627 312.158 164.686 312.061 164.75 311.969C164.797 311.882 164.859 311.806 164.906 311.719C164.971 311.616 164.994 311.595 165.031 311.531C165.114 311.392 165.171 311.235 165.25 311.094C165.297 311.009 165.358 310.929 165.406 310.844C166.817 308.657 168.119 306.392 169.5 304.188C172.893 298.771 176.266 293.347 179.719 287.969C182.608 283.469 185.561 279.019 188.562 274.594C190.495 271.744 192.587 268.955 194.406 266.031C195.178 264.791 195.881 263.508 196.625 262.25C201.119 254.648 205.613 247.059 210.281 239.562C218.317 226.658 226.966 214.108 235.5 201.531C246.981 184.612 258.761 167.842 271.094 151.531C281.613 137.619 292.573 124.059 303.844 110.75C333.479 75.7557 365.704 43.1303 399.406 12.0625ZM112.875 284.812C112.699 285.141 112.469 285.443 112.312 285.781C112.449 285.545 112.573 285.293 112.719 285.062C112.771 284.979 112.823 284.896 112.875 284.812Z" fill="#ffffff" fill-rule="nonzero" opacity="1" stroke="none"/>
</g>
</svg>
