<?xml version="1.0" encoding="UTF-8" standalone="no"?>
<!DOCTYPE svg PUBLIC "-//W3C//DTD SVG 1.1//EN" "http://www.w3.org/Graphics/SVG/1.1/DTD/svg11.dtd">
<!-- Created with Vectornator (http://vectornator.io/) -->
<svg stroke-miterlimit="10" style="fill-rule:nonzero;clip-rule:evenodd;stroke-linecap:round;stroke-linejoin:round;" version="1.1" viewBox="0 0 400 400" xml:space="preserve" xmlns="http://www.w3.org/2000/svg" xmlns:xlink="http://www.w3.org/1999/xlink">
<defs/>
<clipPath id="ArtboardFrame">
<rect height="400" width="400" x="0" y="0"/>
</clipPath>
<g clip-path="url(#ArtboardFrame)" id="Слой-1">
<path d="M0.691724 199.889C0.691724 89.4475 90.0363-0.0833555 200.248-0.0833555C310.461-0.0833555 399.805 89.4475 399.805 199.889C399.805 310.331 310.461 399.862 200.248 399.862C90.0363 399.862 0.691724 310.331 0.691724 199.889Z" fill="#3e68ff" fill-rule="nonzero" opacity="1" stroke="none"/>
<g opacity="1">
<path d="M304.188 7C295.84 12.6075 287.471 18.208 279.25 24C274.157 27.5877 269.151 31.3434 264.062 34.9375C262.815 35.8184 261.564 36.6433 260.344 37.5625C257.925 39.3853 255.583 41.292 253.125 43.0625C251.92 43.9307 250.613 44.7955 249.5 45.7812C248.424 46.734 247.466 47.872 246.469 48.9062C245.829 49.5697 245.105 50.1814 244.625 50.9688C244.431 51.2863 244.352 51.6526 244.219 52C243.923 52.7734 243.613 53.5408 243.312 54.3125C242.423 56.6001 241.688 58.9146 240.938 61.25C239.036 67.1654 237.018 73.0408 234.969 78.9062C228.799 96.5676 221.962 113.983 215.156 131.406C208.931 147.343 202.243 163.096 196.094 179.062C187.799 200.599 180.025 222.369 172.688 244.25C170.317 251.318 167.988 258.399 165.625 265.469C161.605 277.496 157.846 289.615 155.969 302.188C160.705 290.215 167.25 279.162 173.969 268.219C178.038 261.592 182.078 254.934 186.156 248.312C196.325 231.803 206.823 215.516 217.844 199.562C232.313 178.616 247.654 158.275 262.75 137.781C271.994 125.232 281.251 112.702 290.625 100.25C293.451 96.4963 296.331 92.7856 299.156 89.0312C300.408 87.367 301.558 85.667 302.719 83.9375C303.204 83.215 303.834 82.5449 304.188 81.75C304.768 80.4449 304.872 78.798 305.125 77.4062C305.299 76.4521 305.527 75.5273 305.625 74.5625C305.729 73.5426 305.668 72.4927 305.719 71.4688C305.952 66.7644 306.066 62.0869 306.031 57.375C305.908 40.574 304.859 23.7832 304.188 7Z" fill="#ffffff" stroke="none"/>
</g>
<g opacity="1">
<path d="M111.375 326C110.312 326.005 109.222 325.882 108.188 326.125C107.63 326.256 106.982 326.57 106.75 327.094C106.513 327.628 106.885 328.239 107 328.812C107.241 330.018 107.594 331.209 107.875 332.406C108.267 334.076 108.68 335.759 109.031 337.438C109.477 339.566 109.777 341.714 110.219 343.844C113.234 358.391 112.603 373.38 115.312 387.969C122.828 381.663 131.109 376.488 139.438 371.344C142.244 369.61 144.941 367.71 147.719 365.938C148.643 365.348 149.596 364.853 150.531 364.281C151.522 363.675 152.484 363.022 153.469 362.406C156.785 360.333 160.274 358.347 163.875 356.812C164.409 356.585 164.972 356.399 165.5 356.156C165.976 355.937 166.639 355.875 166.875 355.406C167.105 354.95 166.887 354.345 166.625 353.906C166.1 353.028 165.286 352.348 164.594 351.594C163.798 350.727 162.979 349.873 162.156 349.031C155.701 342.424 149.134 335.951 142.906 329.125C133.655 327.684 124.36 326.516 115 326.094C113.79 326.039 112.586 325.994 111.375 326Z" fill="#ffffff" stroke="none"/>
</g>
</g>
</svg>
